<svg width="24" height="24" viewBox="0 0 24 24" fill="none" xmlns="http://www.w3.org/2000/svg">
<g clip-path="url(#clip0_1693_1708)">
<path d="M4.27296 4.6694C4.53135 4.52022 4.83843 4.47979 5.12663 4.55702C5.41483 4.63424 5.66055 4.82279 5.80973 5.08118L10.4972 13.2002C10.5967 13.3724 10.7605 13.4981 10.9526 13.5496C11.1448 13.6011 11.3495 13.5741 11.5218 13.4747C11.694 13.3752 11.8197 13.2114 11.8712 13.0193C11.9227 12.8272 11.8957 12.6224 11.7963 12.4502L9.89652 9.15971L10.0052 9.09001C10.408 8.83667 10.8267 8.60187 11.0855 8.51309C11.2798 8.44766 11.5394 8.41729 11.804 8.41351C11.9355 8.41032 12.1091 8.49197 12.2343 8.70891L13.7448 11.3252C13.8443 11.4974 14.0081 11.6231 14.2002 11.6746C14.3924 11.7261 14.5971 11.6991 14.7693 11.5997C14.9416 11.5002 15.0673 11.3364 15.1188 11.1443C15.1703 10.9522 15.1433 10.7474 15.0439 10.5752L13.8701 8.54218C13.9132 8.51088 13.9566 8.48004 14.0003 8.44969C14.3928 8.18151 14.7515 7.9987 14.95 7.97065C15.1378 7.9419 15.495 8.01455 15.9039 8.16473C16.0811 8.22869 16.2412 8.29905 16.3579 8.35119L17.3674 10.0997C17.4669 10.272 17.6307 10.3977 17.8228 10.4491C18.015 10.5006 18.2197 10.4737 18.3919 10.3742C18.5642 10.2748 18.6899 10.1109 18.7414 9.91881C18.7929 9.72667 18.7659 9.52195 18.6665 9.34969L17.9165 8.05065L18.3607 7.79415C18.5423 7.68933 18.7438 7.62373 18.9522 7.60158C19.1607 7.57943 19.3715 7.60122 19.571 7.66554C19.7705 7.72987 19.9544 7.8353 20.1106 7.97504C20.2669 8.11478 20.3921 8.28572 20.4783 8.47685L22.1625 12.207C22.3787 12.6865 22.4916 13.2061 22.4939 13.7321L22.5133 17.9506C22.5139 18.0828 22.4795 18.2128 22.4137 18.3274C22.3479 18.4421 22.253 18.5373 22.1385 18.6034L13.8441 23.3922C13.7371 23.4539 13.6166 23.4882 13.4931 23.4921C13.3697 23.496 13.2472 23.4693 13.1365 23.4145L9.66247 21.6963C9.34009 21.5371 9.06056 21.3029 8.84731 21.0134L6.07039 17.2386C5.95894 17.0875 5.90829 16.8999 5.92844 16.7132C5.94859 16.5265 6.03807 16.3541 6.1792 16.2301L7.33214 15.2181L7.99964 16.3742C8.0991 16.5465 8.26291 16.6722 8.45504 16.7237C8.64718 16.7751 8.85189 16.7482 9.02416 16.6487C9.19642 16.5493 9.32212 16.3855 9.3736 16.1933C9.42508 16.0012 9.39813 15.7965 9.29868 15.6242L3.86118 6.20618C3.71199 5.94779 3.67157 5.64071 3.74879 5.35251C3.82601 5.06431 4.01456 4.81859 4.27296 4.6694Z" fill="white"/>
<path d="M4.27296 4.66928C4.53135 4.5201 4.83843 4.47967 5.12663 4.55689C5.41483 4.63412 5.66055 4.82267 5.80973 5.08106L10.4972 13.2C10.5967 13.3723 10.7605 13.498 10.9526 13.5495C11.1448 13.601 11.3495 13.574 11.5218 13.4746C11.694 13.3751 11.8197 13.2113 11.8712 13.0192C11.9227 12.827 11.8957 12.6223 11.7963 12.45L9.89652 9.15959L10.0052 9.08989C10.408 8.83655 10.8267 8.60175 11.0855 8.51296C11.2798 8.44754 11.5394 8.41717 11.804 8.41339C11.9355 8.4102 12.1091 8.49185 12.2343 8.70879L13.7448 11.325C13.8443 11.4973 14.0081 11.623 14.2002 11.6745C14.3924 11.726 14.5971 11.699 14.7693 11.5996C14.9416 11.5001 15.0673 11.3363 15.1188 11.1442C15.1703 10.952 15.1433 10.7473 15.0439 10.575L13.8701 8.54205C13.9132 8.51075 13.9566 8.47992 14.0003 8.44956C14.3928 8.18139 14.7515 7.99857 14.95 7.97053C15.1378 7.94178 15.495 8.01443 15.9039 8.16461C16.0811 8.22857 16.2412 8.29893 16.3579 8.35106L17.3674 10.0996C17.4669 10.2718 17.6307 10.3975 17.8228 10.449C18.015 10.5005 18.2197 10.4735 18.3919 10.3741C18.5642 10.2746 18.6899 10.1108 18.7414 9.91868C18.7929 9.72655 18.7659 9.52183 18.6665 9.34957L17.9165 8.05053L18.3607 7.79403C18.5423 7.68921 18.7438 7.62361 18.9522 7.60146C19.1607 7.57931 19.3715 7.60109 19.571 7.66542C19.7705 7.72975 19.9544 7.83518 20.1106 7.97492C20.2669 8.11466 20.3921 8.2856 20.4783 8.47672L22.1625 12.2069C22.3787 12.6864 22.4916 13.206 22.4939 13.732L22.5133 17.9505C22.5139 18.0827 22.4795 18.2127 22.4137 18.3273C22.3479 18.442 22.253 18.5372 22.1385 18.6033L13.8441 23.3921C13.7371 23.4538 13.6166 23.4881 13.4931 23.492C13.3697 23.4959 13.2472 23.4692 13.1365 23.4144L9.66247 21.6962C9.34009 21.537 9.06056 21.3028 8.84731 21.0133L6.07039 17.2385C5.95894 17.0873 5.90829 16.8998 5.92844 16.7131C5.94859 16.5263 6.03807 16.3539 6.1792 16.23L7.33214 15.2179L7.99964 16.3741C8.0991 16.5464 8.26291 16.672 8.45504 16.7235C8.64718 16.775 8.85189 16.7481 9.02416 16.6486C9.19642 16.5492 9.32212 16.3853 9.3736 16.1932C9.42508 16.0011 9.39813 15.7964 9.29868 15.6241L3.86118 6.20606C3.71199 5.94767 3.67157 5.64059 3.74879 5.35239C3.82601 5.06419 4.01456 4.81847 4.27296 4.66928ZM9.14577 7.85925L7.10877 4.33106C6.76068 3.72814 6.18733 3.28819 5.51486 3.10801C4.84238 2.92782 4.12588 3.02215 3.52296 3.37024C2.92003 3.71834 2.48009 4.29169 2.2999 4.96416C2.11971 5.63663 2.21404 6.35314 2.56214 6.95606L6.56714 13.8929L5.18829 15.1047C4.76579 15.4764 4.49788 15.9928 4.43742 16.5523C4.37695 17.1118 4.52831 17.6736 4.86164 18.1269L7.63931 21.903C7.99473 22.3855 8.46061 22.7758 8.99792 23.0412L12.4719 24.7593C12.804 24.9235 13.1714 25.0032 13.5416 24.9913C13.9118 24.9794 14.2734 24.8763 14.5941 24.6911L22.8885 19.9024C23.2319 19.7039 23.5168 19.4183 23.7142 19.0743C23.9116 18.7304 24.0147 18.3404 24.0128 17.9438L23.9943 13.7266C23.991 12.9894 23.8326 12.2611 23.5293 11.5892L21.8451 7.85908C21.6727 7.47705 21.4221 7.13539 21.1096 6.85612C20.797 6.57684 20.4295 6.36616 20.0305 6.23764C19.6316 6.10912 19.2101 6.06562 18.7934 6.10995C18.3766 6.15428 17.9737 6.28544 17.6107 6.49499L16.856 6.93074C16.7114 6.8676 16.5649 6.80894 16.4167 6.75483C15.9968 6.6006 15.3282 6.39948 14.7365 6.48472C14.1542 6.56806 13.5385 6.94775 13.1512 7.21292L12.9888 7.32751C12.6461 7.05334 12.2186 6.90697 11.7798 6.91353C11.3814 6.91371 10.9854 6.97419 10.6051 7.09291C10.1559 7.24487 9.60163 7.57181 9.20663 7.82065L9.14577 7.85925Z" fill="black"/>
</g>
<defs>
<clipPath id="clip0_1693_1708">
<rect width="24" height="24" fill="white" transform="translate(0 0.000976562)"/>
</clipPath>
</defs>
</svg>
