<svg width="500" height="168" viewBox="0 0 500 168" fill="none" xmlns="http://www.w3.org/2000/svg">
<path d="M1.08364 12V10.6705L4.19017 7.79403C4.45437 7.53835 4.67597 7.30824 4.85494 7.10369C5.03676 6.89915 5.17454 6.69886 5.26829 6.50284C5.36204 6.30398 5.40892 6.08949 5.40892 5.85938C5.40892 5.60369 5.35068 5.38352 5.2342 5.19886C5.11773 5.01136 4.95864 4.8679 4.75693 4.76847C4.55523 4.66619 4.32653 4.61506 4.07085 4.61506C3.80381 4.61506 3.57085 4.66903 3.37199 4.77699C3.17312 4.88494 3.01972 5.03977 2.91176 5.24148C2.80381 5.44318 2.74983 5.68324 2.74983 5.96165H0.998408C0.998408 5.39062 1.12767 4.89489 1.38619 4.47443C1.64472 4.05398 2.00693 3.72869 2.47284 3.49858C2.93875 3.26847 3.47568 3.15341 4.08364 3.15341C4.70864 3.15341 5.25267 3.2642 5.71574 3.4858C6.18165 3.70455 6.54386 4.00852 6.80239 4.39773C7.06091 4.78693 7.19017 5.23295 7.19017 5.7358C7.19017 6.06534 7.12483 6.39062 6.99415 6.71165C6.86631 7.03267 6.63761 7.3892 6.30807 7.78125C5.97852 8.17045 5.51403 8.63778 4.9146 9.18324L3.64045 10.4318V10.4915H7.30523V12H1.08364ZM11.8241 12.1918C11.0912 12.1889 10.4605 12.0085 9.93206 11.6506C9.40649 11.2926 9.00166 10.7741 8.71757 10.0952C8.43632 9.41619 8.29712 8.59943 8.29996 7.64489C8.29996 6.69318 8.44058 5.8821 8.72183 5.21165C9.00592 4.54119 9.41075 4.03125 9.93632 3.68182C10.4647 3.32955 11.094 3.15341 11.8241 3.15341C12.5542 3.15341 13.1821 3.32955 13.7076 3.68182C14.236 4.03409 14.6423 4.54545 14.9264 5.21591C15.2105 5.88352 15.3511 6.69318 15.3483 7.64489C15.3483 8.60227 15.2062 9.42045 14.9221 10.0994C14.6409 10.7784 14.2375 11.2969 13.7119 11.6548C13.1863 12.0128 12.5571 12.1918 11.8241 12.1918ZM11.8241 10.6619C12.3241 10.6619 12.7233 10.4105 13.0215 9.90767C13.3198 9.40483 13.4676 8.65057 13.4647 7.64489C13.4647 6.98295 13.3965 6.43182 13.2602 5.99148C13.1267 5.55114 12.9363 5.22017 12.6892 4.99858C12.4448 4.77699 12.1565 4.66619 11.8241 4.66619C11.3269 4.66619 10.9292 4.91477 10.6309 5.41193C10.3326 5.90909 10.1821 6.65341 10.1792 7.64489C10.1792 8.31534 10.246 8.875 10.3795 9.32386C10.5159 9.76989 10.7076 10.1051 10.9548 10.3295C11.2019 10.5511 11.4917 10.6619 11.8241 10.6619ZM19.8458 12.1918C19.1129 12.1889 18.4822 12.0085 17.9538 11.6506C17.4282 11.2926 17.0234 10.7741 16.7393 10.0952C16.458 9.41619 16.3188 8.59943 16.3217 7.64489C16.3217 6.69318 16.4623 5.8821 16.7436 5.21165C17.0276 4.54119 17.4325 4.03125 17.958 3.68182C18.4864 3.32955 19.1157 3.15341 19.8458 3.15341C20.5759 3.15341 21.2038 3.32955 21.7293 3.68182C22.2578 4.03409 22.664 4.54545 22.9481 5.21591C23.2322 5.88352 23.3728 6.69318 23.37 7.64489C23.37 8.60227 23.2279 9.42045 22.9438 10.0994C22.6626 10.7784 22.2592 11.2969 21.7336 11.6548C21.208 12.0128 20.5788 12.1918 19.8458 12.1918ZM19.8458 10.6619C20.3458 10.6619 20.745 10.4105 21.0433 9.90767C21.3416 9.40483 21.4893 8.65057 21.4864 7.64489C21.4864 6.98295 21.4183 6.43182 21.2819 5.99148C21.1484 5.55114 20.958 5.22017 20.7109 4.99858C20.4666 4.77699 20.1782 4.66619 19.8458 4.66619C19.3487 4.66619 18.9509 4.91477 18.6526 5.41193C18.3543 5.90909 18.2038 6.65341 18.2009 7.64489C18.2009 8.31534 18.2677 8.875 18.4012 9.32386C18.5376 9.76989 18.7293 10.1051 18.9765 10.3295C19.2237 10.5511 19.5134 10.6619 19.8458 10.6619ZM27.8675 12.1918C27.1346 12.1889 26.5039 12.0085 25.9755 11.6506C25.4499 11.2926 25.0451 10.7741 24.761 10.0952C24.4798 9.41619 24.3406 8.59943 24.3434 7.64489C24.3434 6.69318 24.484 5.8821 24.7653 5.21165C25.0494 4.54119 25.4542 4.03125 25.9798 3.68182C26.5082 3.32955 27.1374 3.15341 27.8675 3.15341C28.5977 3.15341 29.2255 3.32955 29.7511 3.68182C30.2795 4.03409 30.6857 4.54545 30.9698 5.21591C31.2539 5.88352 31.3945 6.69318 31.3917 7.64489C31.3917 8.60227 31.2496 9.42045 30.9656 10.0994C30.6843 10.7784 30.2809 11.2969 29.7553 11.6548C29.2298 12.0128 28.6005 12.1918 27.8675 12.1918ZM27.8675 10.6619C28.3675 10.6619 28.7667 10.4105 29.065 9.90767C29.3633 9.40483 29.511 8.65057 29.5082 7.64489C29.5082 6.98295 29.44 6.43182 29.3036 5.99148C29.1701 5.55114 28.9798 5.22017 28.7326 4.99858C28.4883 4.77699 28.1999 4.66619 27.8675 4.66619C27.3704 4.66619 26.9727 4.91477 26.6744 5.41193C26.3761 5.90909 26.2255 6.65341 26.2227 7.64489C26.2227 8.31534 26.2894 8.875 26.4229 9.32386C26.5593 9.76989 26.7511 10.1051 26.9982 10.3295C27.2454 10.5511 27.5352 10.6619 27.8675 10.6619Z" fill="#CCCBD8"/>
<path d="M6.56801 35.3707V44.098H4.72284V37.1221H4.6717L2.67312 38.3749V36.7386L4.83364 35.3707H6.56801ZM11.8241 44.2897C11.0912 44.2869 10.4605 44.1065 9.93206 43.7485C9.40649 43.3906 9.00166 42.8721 8.71757 42.1931C8.43632 41.5142 8.29712 40.6974 8.29996 39.7428C8.29996 38.7911 8.44058 37.9801 8.72183 37.3096C9.00592 36.6392 9.41075 36.1292 9.93632 35.7798C10.4647 35.4275 11.094 35.2514 11.8241 35.2514C12.5542 35.2514 13.1821 35.4275 13.7076 35.7798C14.236 36.1321 14.6423 36.6434 14.9264 37.3139C15.2105 37.9815 15.3511 38.7911 15.3483 39.7428C15.3483 40.7002 15.2062 41.5184 14.9221 42.1974C14.6409 42.8764 14.2375 43.3948 13.7119 43.7528C13.1863 44.1107 12.5571 44.2897 11.8241 44.2897ZM11.8241 42.7599C12.3241 42.7599 12.7233 42.5085 13.0215 42.0056C13.3198 41.5028 13.4676 40.7485 13.4647 39.7428C13.4647 39.0809 13.3965 38.5298 13.2602 38.0894C13.1267 37.6491 12.9363 37.3181 12.6892 37.0965C12.4448 36.8749 12.1565 36.7642 11.8241 36.7642C11.3269 36.7642 10.9292 37.0127 10.6309 37.5099C10.3326 38.0071 10.1821 38.7514 10.1792 39.7428C10.1792 40.4133 10.246 40.973 10.3795 41.4218C10.5159 41.8678 10.7076 42.2031 10.9548 42.4275C11.2019 42.6491 11.4917 42.7599 11.8241 42.7599ZM19.8458 44.2897C19.1129 44.2869 18.4822 44.1065 17.9538 43.7485C17.4282 43.3906 17.0234 42.8721 16.7393 42.1931C16.458 41.5142 16.3188 40.6974 16.3217 39.7428C16.3217 38.7911 16.4623 37.9801 16.7436 37.3096C17.0276 36.6392 17.4325 36.1292 17.958 35.7798C18.4864 35.4275 19.1157 35.2514 19.8458 35.2514C20.5759 35.2514 21.2038 35.4275 21.7293 35.7798C22.2578 36.1321 22.664 36.6434 22.9481 37.3139C23.2322 37.9815 23.3728 38.7911 23.37 39.7428C23.37 40.7002 23.2279 41.5184 22.9438 42.1974C22.6626 42.8764 22.2592 43.3948 21.7336 43.7528C21.208 44.1107 20.5788 44.2897 19.8458 44.2897ZM19.8458 42.7599C20.3458 42.7599 20.745 42.5085 21.0433 42.0056C21.3416 41.5028 21.4893 40.7485 21.4864 39.7428C21.4864 39.0809 21.4183 38.5298 21.2819 38.0894C21.1484 37.6491 20.958 37.3181 20.7109 37.0965C20.4666 36.8749 20.1782 36.7642 19.8458 36.7642C19.3487 36.7642 18.9509 37.0127 18.6526 37.5099C18.3543 38.0071 18.2038 38.7514 18.2009 39.7428C18.2009 40.4133 18.2677 40.973 18.4012 41.4218C18.5376 41.8678 18.7293 42.2031 18.9765 42.4275C19.2237 42.6491 19.5134 42.7599 19.8458 42.7599ZM27.8675 44.2897C27.1346 44.2869 26.5039 44.1065 25.9755 43.7485C25.4499 43.3906 25.0451 42.8721 24.761 42.1931C24.4798 41.5142 24.3406 40.6974 24.3434 39.7428C24.3434 38.7911 24.484 37.9801 24.7653 37.3096C25.0494 36.6392 25.4542 36.1292 25.9798 35.7798C26.5082 35.4275 27.1374 35.2514 27.8675 35.2514C28.5977 35.2514 29.2255 35.4275 29.7511 35.7798C30.2795 36.1321 30.6857 36.6434 30.9698 37.3139C31.2539 37.9815 31.3945 38.7911 31.3917 39.7428C31.3917 40.7002 31.2496 41.5184 30.9656 42.1974C30.6843 42.8764 30.2809 43.3948 29.7553 43.7528C29.2298 44.1107 28.6005 44.2897 27.8675 44.2897ZM27.8675 42.7599C28.3675 42.7599 28.7667 42.5085 29.065 42.0056C29.3633 41.5028 29.511 40.7485 29.5082 39.7428C29.5082 39.0809 29.44 38.5298 29.3036 38.0894C29.1701 37.6491 28.9798 37.3181 28.7326 37.0965C28.4883 36.8749 28.1999 36.7642 27.8675 36.7642C27.3704 36.7642 26.9727 37.0127 26.6744 37.5099C26.3761 38.0071 26.2255 38.7514 26.2227 39.7428C26.2227 40.4133 26.2894 40.973 26.4229 41.4218C26.5593 41.8678 26.7511 42.2031 26.9982 42.4275C27.2454 42.6491 27.5352 42.7599 27.8675 42.7599Z" fill="#CCCBD8"/>
<path d="M12.1171 76.3153C11.5148 76.3153 10.9779 76.2045 10.5063 75.9829C10.0375 75.7613 9.66537 75.4559 9.3898 75.0667C9.11423 74.6775 8.97077 74.2314 8.9594 73.7286H10.7492C10.7691 74.0667 10.9111 74.3408 11.1753 74.5511C11.4395 74.7613 11.7534 74.8664 12.1171 74.8664C12.4068 74.8664 12.6625 74.8025 12.8841 74.6746C13.1086 74.5439 13.2833 74.3636 13.4083 74.1334C13.5361 73.9005 13.6 73.6334 13.6 73.3323C13.6 73.0255 13.5347 72.7556 13.404 72.5226C13.2762 72.2897 13.0986 72.1079 12.8713 71.9772C12.6441 71.8465 12.3841 71.7797 12.0915 71.7769C11.8358 71.7769 11.5872 71.8295 11.3458 71.9346C11.1071 72.0397 10.9211 72.1832 10.7875 72.365L9.1469 72.0709L9.56026 67.4687H14.8955V68.9772H11.0816L10.8557 71.1633H10.9068C11.0603 70.9474 11.2918 70.7684 11.6014 70.6263C11.9111 70.4843 12.2577 70.4133 12.6412 70.4133C13.1668 70.4133 13.6355 70.5368 14.0475 70.784C14.4594 71.0312 14.7847 71.3707 15.0233 71.8025C15.262 72.2314 15.3799 72.7258 15.377 73.2854C15.3799 73.8735 15.2435 74.3962 14.9679 74.8536C14.6952 75.3082 14.3131 75.6661 13.8216 75.9275C13.333 76.186 12.7648 76.3153 12.1171 76.3153ZM19.8458 76.3877C19.1129 76.3849 18.4822 76.2045 17.9538 75.8465C17.4282 75.4886 17.0234 74.9701 16.7393 74.2911C16.458 73.6121 16.3188 72.7954 16.3217 71.8408C16.3217 70.8891 16.4623 70.078 16.7436 69.4076C17.0276 68.7371 17.4325 68.2272 17.958 67.8778C18.4864 67.5255 19.1157 67.3493 19.8458 67.3493C20.5759 67.3493 21.2038 67.5255 21.7293 67.8778C22.2578 68.23 22.664 68.7414 22.9481 69.4118C23.2322 70.0795 23.3728 70.8891 23.37 71.8408C23.37 72.7982 23.2279 73.6164 22.9438 74.2954C22.6626 74.9743 22.2592 75.4928 21.7336 75.8508C21.208 76.2087 20.5788 76.3877 19.8458 76.3877ZM19.8458 74.8579C20.3458 74.8579 20.745 74.6064 21.0433 74.1036C21.3416 73.6008 21.4893 72.8465 21.4864 71.8408C21.4864 71.1789 21.4183 70.6278 21.2819 70.1874C21.1484 69.7471 20.958 69.4161 20.7109 69.1945C20.4666 68.9729 20.1782 68.8621 19.8458 68.8621C19.3487 68.8621 18.9509 69.1107 18.6526 69.6079C18.3543 70.105 18.2038 70.8493 18.2009 71.8408C18.2009 72.5113 18.2677 73.0709 18.4012 73.5198C18.5376 73.9658 18.7293 74.3011 18.9765 74.5255C19.2237 74.7471 19.5134 74.8579 19.8458 74.8579ZM27.8675 76.3877C27.1346 76.3849 26.5039 76.2045 25.9755 75.8465C25.4499 75.4886 25.0451 74.9701 24.761 74.2911C24.4798 73.6121 24.3406 72.7954 24.3434 71.8408C24.3434 70.8891 24.484 70.078 24.7653 69.4076C25.0494 68.7371 25.4542 68.2272 25.9798 67.8778C26.5082 67.5255 27.1374 67.3493 27.8675 67.3493C28.5977 67.3493 29.2255 67.5255 29.7511 67.8778C30.2795 68.23 30.6857 68.7414 30.9698 69.4118C31.2539 70.0795 31.3945 70.8891 31.3917 71.8408C31.3917 72.7982 31.2496 73.6164 30.9656 74.2954C30.6843 74.9743 30.2809 75.4928 29.7553 75.8508C29.2298 76.2087 28.6005 76.3877 27.8675 76.3877ZM27.8675 74.8579C28.3675 74.8579 28.7667 74.6064 29.065 74.1036C29.3633 73.6008 29.511 72.8465 29.5082 71.8408C29.5082 71.1789 29.44 70.6278 29.3036 70.1874C29.1701 69.7471 28.9798 69.4161 28.7326 69.1945C28.4883 68.9729 28.1999 68.8621 27.8675 68.8621C27.3704 68.8621 26.9727 69.1107 26.6744 69.6079C26.3761 70.105 26.2255 70.8493 26.2227 71.8408C26.2227 72.5113 26.2894 73.0709 26.4229 73.5198C26.5593 73.9658 26.7511 74.3011 26.9982 74.5255C27.2454 74.7471 27.5352 74.8579 27.8675 74.8579Z" fill="#CCCBD8"/>
<path d="M9.6327 108.294V106.964L12.7392 104.088C13.0034 103.832 13.225 103.602 13.404 103.398C13.5858 103.193 13.7236 102.993 13.8174 102.797C13.9111 102.598 13.958 102.383 13.958 102.153C13.958 101.898 13.8997 101.677 13.7833 101.493C13.6668 101.305 13.5077 101.162 13.306 101.062C13.1043 100.96 12.8756 100.909 12.6199 100.909C12.3529 100.909 12.1199 100.963 11.9211 101.071C11.7222 101.179 11.5688 101.334 11.4608 101.535C11.3529 101.737 11.2989 101.977 11.2989 102.256H9.54747C9.54747 101.685 9.67673 101.189 9.93526 100.768C10.1938 100.348 10.556 100.023 11.0219 99.7925C11.4878 99.5624 12.0247 99.4473 12.6327 99.4473C13.2577 99.4473 13.8017 99.5581 14.2648 99.7797C14.7307 99.9985 15.0929 100.302 15.3514 100.692C15.61 101.081 15.7392 101.527 15.7392 102.03C15.7392 102.359 15.6739 102.685 15.5432 103.006C15.4154 103.327 15.1867 103.683 14.8571 104.075C14.5276 104.464 14.0631 104.932 13.4637 105.477L12.1895 106.726V106.785H15.8543V108.294H9.6327ZM20.1388 108.413C19.5365 108.413 18.9996 108.302 18.528 108.081C18.0592 107.859 17.6871 107.554 17.4115 107.165C17.136 106.775 16.9925 106.329 16.9811 105.827H18.7709C18.7908 106.165 18.9328 106.439 19.197 106.649C19.4612 106.859 19.7752 106.964 20.1388 106.964C20.4286 106.964 20.6842 106.9 20.9058 106.773C21.1303 106.642 21.305 106.462 21.43 106.231C21.5578 105.998 21.6217 105.731 21.6217 105.43C21.6217 105.123 21.5564 104.854 21.4257 104.621C21.2979 104.388 21.1203 104.206 20.8931 104.075C20.6658 103.944 20.4058 103.878 20.1132 103.875C19.8575 103.875 19.609 103.927 19.3675 104.033C19.1288 104.138 18.9428 104.281 18.8092 104.463L17.1686 104.169L17.582 99.5666H22.9172V101.075H19.1033L18.8774 103.261H18.9286C19.082 103.045 19.3135 102.866 19.6232 102.724C19.9328 102.582 20.2794 102.511 20.6629 102.511C21.1885 102.511 21.6573 102.635 22.0692 102.882C22.4811 103.129 22.8064 103.469 23.045 103.9C23.2837 104.329 23.4016 104.824 23.3987 105.383C23.4016 105.971 23.2652 106.494 22.9896 106.952C22.7169 107.406 22.3348 107.764 21.8433 108.025C21.3547 108.284 20.7865 108.413 20.1388 108.413ZM27.8675 108.486C27.1346 108.483 26.5039 108.302 25.9755 107.944C25.4499 107.587 25.0451 107.068 24.761 106.389C24.4798 105.71 24.3406 104.893 24.3434 103.939C24.3434 102.987 24.484 102.176 24.7653 101.506C25.0494 100.835 25.4542 100.325 25.9798 99.9757C26.5082 99.6235 27.1374 99.4473 27.8675 99.4473C28.5977 99.4473 29.2255 99.6235 29.7511 99.9757C30.2795 100.328 30.6857 100.839 30.9698 101.51C31.2539 102.177 31.3945 102.987 31.3917 103.939C31.3917 104.896 31.2496 105.714 30.9656 106.393C30.6843 107.072 30.2809 107.591 29.7553 107.949C29.2298 108.307 28.6005 108.486 27.8675 108.486ZM27.8675 106.956C28.3675 106.956 28.7667 106.704 29.065 106.202C29.3633 105.699 29.511 104.944 29.5082 103.939C29.5082 103.277 29.44 102.726 29.3036 102.285C29.1701 101.845 28.9798 101.514 28.7326 101.292C28.4883 101.071 28.1999 100.96 27.8675 100.96C27.3704 100.96 26.9727 101.209 26.6744 101.706C26.3761 102.203 26.2255 102.947 26.2227 103.939C26.2227 104.609 26.2894 105.169 26.4229 105.618C26.5593 106.064 26.7511 106.399 26.9982 106.623C27.2454 106.845 27.5352 106.956 27.8675 106.956Z" fill="#CCCBD8"/>
<path d="M27.8675 140.584C27.1346 140.581 26.5039 140.4 25.9755 140.042C25.4499 139.684 25.0451 139.166 24.761 138.487C24.4798 137.808 24.3406 136.991 24.3434 136.037C24.3434 135.085 24.484 134.274 24.7653 133.604C25.0494 132.933 25.4542 132.423 25.9798 132.074C26.5082 131.721 27.1374 131.545 27.8675 131.545C28.5977 131.545 29.2255 131.721 29.7511 132.074C30.2795 132.426 30.6857 132.937 30.9698 133.608C31.2539 134.275 31.3945 135.085 31.3917 136.037C31.3917 136.994 31.2496 137.812 30.9656 138.491C30.6843 139.17 30.2809 139.689 29.7553 140.047C29.2298 140.405 28.6005 140.584 27.8675 140.584ZM27.8675 139.054C28.3675 139.054 28.7667 138.802 29.065 138.3C29.3633 137.797 29.511 137.042 29.5082 136.037C29.5082 135.375 29.44 134.824 29.3036 134.383C29.1701 133.943 28.9798 133.612 28.7326 133.39C28.4883 133.169 28.1999 133.058 27.8675 133.058C27.3704 133.058 26.9727 133.307 26.6744 133.804C26.3761 134.301 26.2255 135.045 26.2227 136.037C26.2227 136.707 26.2894 137.267 26.4229 137.716C26.5593 138.162 26.7511 138.497 26.9982 138.721C27.2454 138.943 27.5352 139.054 27.8675 139.054Z" fill="#CCCBD8"/>
<rect x="47" width="24.705" height="141.392" rx="5" fill="#4C49ED"/>
<rect x="72.7051" y="54.3919" width="24.705" height="87" rx="5" fill="#AFAEFE"/>
<path d="M63.7232 154.937H65.6991V161.53C65.6991 162.139 65.5621 162.668 65.2882 163.118C65.0174 163.567 64.6403 163.913 64.1572 164.156C63.674 164.4 63.1123 164.521 62.4721 164.521C61.9028 164.521 61.3857 164.421 60.921 164.221C60.4594 164.018 60.0931 163.71 59.8223 163.298C59.5514 162.882 59.4176 162.361 59.4206 161.733H61.4103C61.4165 161.982 61.4673 162.196 61.5627 162.374C61.6612 162.55 61.7951 162.685 61.9643 162.781C62.1367 162.873 62.3398 162.919 62.5737 162.919C62.8199 162.919 63.0277 162.867 63.1969 162.762C63.3693 162.655 63.5001 162.498 63.5893 162.291C63.6786 162.085 63.7232 161.831 63.7232 161.53V154.937ZM68.7214 164.392H66.5793L69.8432 154.937H72.4192L75.6784 164.392H73.5364L71.1681 157.098H71.0942L68.7214 164.392ZM68.5875 160.676H73.6472V162.236H68.5875V160.676ZM84.4644 154.937V164.392H82.7378L78.6245 158.441H78.5553V164.392H76.5564V154.937H78.3106L82.3916 160.883H82.4747V154.937H84.4644Z" fill="#CCCBD8"/>
<rect x="127.41" y="61.3919" width="24.705" height="80" rx="5" fill="#4C49ED"/>
<rect x="153.115" width="24.705" height="141.392" rx="5" fill="#AFAEFE"/>
<path d="M141.617 164.392V154.937H147.877V156.585H143.616V158.838H147.462V160.486H143.616V164.392H141.617ZM148.962 164.392V154.937H155.332V156.585H150.961V158.838H155.005V160.486H150.961V162.744H155.351V164.392H148.962ZM156.662 164.392V154.937H160.447C161.143 154.937 161.723 155.04 162.188 155.247C162.652 155.453 163.002 155.739 163.235 156.105C163.469 156.468 163.586 156.887 163.586 157.361C163.586 157.73 163.512 158.055 163.365 158.335C163.217 158.612 163.014 158.84 162.755 159.018C162.5 159.194 162.208 159.318 161.878 159.392V159.485C162.238 159.5 162.575 159.602 162.889 159.789C163.206 159.977 163.463 160.24 163.66 160.579C163.857 160.914 163.956 161.314 163.956 161.779C163.956 162.281 163.831 162.728 163.582 163.122C163.335 163.513 162.971 163.823 162.488 164.05C162.004 164.278 161.409 164.392 160.701 164.392H156.662ZM158.661 162.758H160.29C160.847 162.758 161.253 162.651 161.509 162.439C161.764 162.224 161.892 161.937 161.892 161.58C161.892 161.319 161.829 161.088 161.703 160.888C161.577 160.688 161.397 160.531 161.163 160.417C160.932 160.303 160.656 160.246 160.336 160.246H158.661V162.758ZM158.661 158.894H160.142C160.416 158.894 160.659 158.846 160.872 158.751C161.087 158.652 161.257 158.514 161.38 158.335C161.506 158.157 161.569 157.943 161.569 157.693C161.569 157.352 161.447 157.076 161.204 156.867C160.964 156.658 160.623 156.553 160.179 156.553H158.661V158.894Z" fill="#CCCBD8"/>
<rect x="207.82" width="24.705" height="141.392" rx="5" fill="#4C49ED"/>
<rect x="233.525" width="24.705" height="141.392" rx="5" fill="#AFAEFE"/>
<path d="M219.031 154.937H221.496L224.1 161.29H224.211L226.815 154.937H229.28V164.392H227.341V158.238H227.262L224.816 164.346H223.495L221.049 158.215H220.97V164.392H219.031V154.937ZM232.296 164.392H230.154L233.418 154.937H235.994L239.253 164.392H237.111L234.743 157.098H234.669L232.296 164.392ZM232.162 160.676H237.222V162.236H232.162V160.676ZM240.131 164.392V154.937H243.861C244.575 154.937 245.185 155.065 245.69 155.32C246.197 155.573 246.584 155.931 246.848 156.396C247.116 156.858 247.25 157.401 247.25 158.026C247.25 158.654 247.115 159.194 246.844 159.646C246.573 160.095 246.18 160.44 245.666 160.68C245.156 160.92 244.537 161.04 243.811 161.04H241.313V159.434H243.487C243.869 159.434 244.186 159.381 244.438 159.277C244.691 159.172 244.879 159.015 245.002 158.806C245.128 158.597 245.191 158.337 245.191 158.026C245.191 157.712 245.128 157.447 245.002 157.232C244.879 157.016 244.689 156.853 244.434 156.742C244.182 156.629 243.863 156.572 243.478 156.572H242.13V164.392H240.131ZM245.237 160.089L247.587 164.392H245.38L243.081 160.089H245.237Z" fill="#CCCBD8"/>
<rect x="288.23" width="24.705" height="141.392" rx="5" fill="#4C49ED"/>
<rect x="313.935" y="57.3919" width="24.705" height="84" rx="5" fill="#AFAEFE"/>
<path d="M302.81 164.392H300.668L303.932 154.937H306.508L309.767 164.392H307.625L305.257 157.098H305.183L302.81 164.392ZM302.676 160.676H307.736V162.236H302.676V160.676ZM310.645 164.392V154.937H314.375C315.092 154.937 315.703 155.074 316.208 155.348C316.713 155.619 317.097 155.996 317.362 156.479C317.63 156.959 317.764 157.513 317.764 158.141C317.764 158.769 317.628 159.323 317.357 159.803C317.087 160.283 316.694 160.657 316.18 160.925C315.669 161.193 315.051 161.327 314.324 161.327H311.947V159.725H314.001C314.386 159.725 314.703 159.658 314.952 159.526C315.205 159.391 315.392 159.204 315.515 158.968C315.642 158.727 315.705 158.452 315.705 158.141C315.705 157.827 315.642 157.553 315.515 157.319C315.392 157.082 315.205 156.899 314.952 156.77C314.7 156.638 314.38 156.572 313.992 156.572H312.644V164.392H310.645ZM318.802 164.392V154.937H322.532C323.246 154.937 323.855 155.065 324.36 155.32C324.868 155.573 325.254 155.931 325.519 156.396C325.787 156.858 325.921 157.401 325.921 158.026C325.921 158.654 325.785 159.194 325.514 159.646C325.243 160.095 324.851 160.44 324.337 160.68C323.826 160.92 323.208 161.04 322.481 161.04H319.984V159.434H322.158C322.54 159.434 322.857 159.381 323.109 159.277C323.362 159.172 323.549 159.015 323.672 158.806C323.799 158.597 323.862 158.337 323.862 158.026C323.862 157.712 323.799 157.447 323.672 157.232C323.549 157.016 323.36 156.853 323.105 156.742C322.852 156.629 322.534 156.572 322.149 156.572H320.801V164.392H318.802ZM323.908 160.089L326.258 164.392H324.051L321.752 160.089H323.908Z" fill="#CCCBD8"/>
<rect x="368.64" y="86.3919" width="24.705" height="55" rx="5" fill="#4C49ED"/>
<rect x="394.345" width="24.705" height="141.392" rx="5" fill="#AFAEFE"/>
<path d="M379.889 154.937H382.354L384.958 161.29H385.069L387.672 154.937H390.138V164.392H388.199V158.238H388.12L385.674 164.346H384.353L381.907 158.215H381.828V164.392H379.889V154.937ZM393.154 164.392H391.012L394.276 154.937H396.852L400.111 164.392H397.969L395.601 157.098H395.527L393.154 164.392ZM393.02 160.676H398.08V162.236H393.02V160.676ZM399.47 154.937H401.709L403.865 159.009H403.958L406.114 154.937H408.353L404.904 161.05V164.392H402.919V161.05L399.47 154.937Z" fill="#CCCBD8"/>
<rect x="449.05" width="24.705" height="141.392" rx="5" fill="#4C49ED"/>
<rect x="474.755" y="62.3919" width="24.705" height="79" rx="5" fill="#AFAEFE"/>
<path d="M465.894 154.937H467.869V161.53C467.869 162.139 467.733 162.668 467.459 163.118C467.188 163.567 466.811 163.913 466.328 164.156C465.844 164.4 465.283 164.521 464.643 164.521C464.073 164.521 463.556 164.421 463.091 164.221C462.63 164.018 462.264 163.71 461.993 163.298C461.722 162.882 461.588 162.361 461.591 161.733H463.581C463.587 161.982 463.638 162.196 463.733 162.374C463.832 162.55 463.965 162.685 464.135 162.781C464.307 162.873 464.51 162.919 464.744 162.919C464.99 162.919 465.198 162.867 465.367 162.762C465.54 162.655 465.67 162.498 465.76 162.291C465.849 162.085 465.894 161.831 465.894 161.53V154.937ZM475.102 154.937H477.101V161.077C477.101 161.767 476.936 162.37 476.607 162.887C476.281 163.404 475.824 163.807 475.236 164.096C474.648 164.383 473.963 164.526 473.182 164.526C472.397 164.526 471.71 164.383 471.123 164.096C470.535 163.807 470.078 163.404 469.752 162.887C469.425 162.37 469.262 161.767 469.262 161.077V154.937H471.261V160.906C471.261 161.267 471.34 161.587 471.497 161.867C471.657 162.147 471.881 162.367 472.171 162.527C472.46 162.687 472.797 162.767 473.182 162.767C473.569 162.767 473.906 162.687 474.193 162.527C474.482 162.367 474.705 162.147 474.862 161.867C475.022 161.587 475.102 161.267 475.102 160.906V154.937ZM486.394 154.937V164.392H484.667L480.554 158.441H480.484V164.392H478.486V154.937H480.24L484.321 160.883H484.404V154.937H486.394Z" fill="#CCCBD8"/>
</svg>
