<svg width="24" height="24" viewBox="0 0 24 24" fill="none" xmlns="http://www.w3.org/2000/svg">
<path d="M5.25 18.001C3.45507 18.001 2 16.5459 2 14.751V6.25098C2 4.45605 3.45507 3.00098 5.25 3.00098H18.75C20.5449 3.00098 22 4.45605 22 6.25098V14.751C22 16.5459 20.5449 18.001 18.75 18.001H13.0125L7.99868 21.7517C7.44585 22.1651 6.6625 22.0522 6.24901 21.4993C6.08736 21.2832 6 21.0206 6 20.7509L5.99921 18.001H5.25ZM12.5135 16.501H18.75C19.7165 16.501 20.5 15.7175 20.5 14.751V6.25098C20.5 5.28448 19.7165 4.50098 18.75 4.50098H5.25C4.2835 4.50098 3.5 5.28448 3.5 6.25098V14.751C3.5 15.7175 4.2835 16.501 5.25 16.501H7.49879L7.499 17.2508L7.49986 20.2515L12.5135 16.501Z" fill="#6B7178"/>
</svg>
