<svg width="23" height="16" viewBox="0 0 23 16" fill="none" xmlns="http://www.w3.org/2000/svg">
<path d="M19.3 0H2.8C1.2 0 0 1.2 0 2.8V11C0 12.5 1.2 13.7 2.8 13.7H5C5 13.7 5.0301 13.7 5.1 13.6L5.8 12.7L6.6 11.7L8.8 8.7C9.3 8 10.1 7.6 11 7.6C11.9 7.6 12.7 8 13.3 8.7L15.5 11.7L16.3 12.7L17 13.6L17.1 13.7H19.4C20.9 13.7 22.2 12.5 22.2 11V2.8C22 1.2 20.8 0 19.3 0Z" fill="#DADEE6"/>
<path d="M14.5 13.7L13.7 12.7L12.9 11.7L11.6 9.9C11.5 9.7 11.2 9.6 10.9 9.6C10.6 9.6 10.4 9.7 10.2 9.9L9.00001 11.7L8.20001 12.7L7.40001 13.7L6.60001 14.8C6.40001 15 6.40001 15.3 6.50001 15.6C6.70001 15.8 7.00001 16 7.30001 16H14.6C14.9 16 15.2 15.8 15.3 15.6C15.4 15.3 15.4 15.1 15.2 14.8L14.5 13.7Z" fill="#DADEE6"/>
</svg>
