<svg width="12" height="12" viewBox="0 0 12 12" fill="none" xmlns="http://www.w3.org/2000/svg">
<path fill-rule="evenodd" clip-rule="evenodd" d="M5.99996 0.666626C6.36815 0.666626 6.66663 0.965103 6.66663 1.33329L6.66663 5.33329L10.6666 5.33329C11.0348 5.33329 11.3333 5.63177 11.3333 5.99996C11.3333 6.36815 11.0348 6.66663 10.6666 6.66663L6.66663 6.66663L6.66663 10.6666C6.66663 11.0348 6.36815 11.3333 5.99996 11.3333C5.63177 11.3333 5.33329 11.0348 5.33329 10.6666L5.33329 6.66663L1.33329 6.66663C0.965103 6.66663 0.666626 6.36815 0.666626 5.99996C0.666626 5.63177 0.965103 5.33329 1.33329 5.33329L5.33329 5.33329L5.33329 1.33329C5.33329 0.965103 5.63177 0.666626 5.99996 0.666626Z" fill="#27292C"/>
</svg>
