<svg width="16" height="16" viewBox="0 0 16 16" fill="none" xmlns="http://www.w3.org/2000/svg">
<path d="M16 12.1538C16 12.6435 15.8244 13.1131 15.5118 13.4593C15.1993 13.8055 14.7754 14 14.3333 14H11V2H14.3333C14.7754 2 15.1993 2.1945 15.5118 2.54073C15.8244 2.88695 16 3.35652 16 3.84615V12.1538Z" fill="#FF4452"/>
<path d="M1.66667 2C1.22464 2 0.800716 2.1945 0.488155 2.54073C0.175595 2.88695 0 3.35652 0 3.84615L0 12.1538C0 12.6435 0.175595 13.1131 0.488155 13.4593C0.800716 13.8055 1.22464 14 1.66667 14H5V2H1.66667Z" fill="#009246"/>
<path d="M5 2H10V14H5V2Z" fill="#EEEEEE"/>
</svg>
