<svg width="16" height="16" viewBox="0 0 16 16" fill="none" xmlns="http://www.w3.org/2000/svg">
<path d="M7 0C7.60747 0 8.15733 0.359615 8.40082 0.916157L10.768 6.326L14.0039 6.12476C15.0396 6.06003 15.9316 6.84713 15.9963 7.8828L16 8C16 9.03769 15.1588 9.8789 14.1211 9.8789L14.0039 9.87524L10.768 9.673L8.40082 15.0838C8.15733 15.6404 7.60747 16 7 16C6.51245 16 6.11722 15.6048 6.11722 15.1172L6.11892 15.0624L6.822 9.426L4.364 9.272L3.22361 11.5528C3.08657 11.8269 2.80643 12 2.5 12C2.22386 12 2 11.7761 2 11.5V9.124L0.937622 9.0586C0.410587 9.02566 0 8.58861 0 8.06055V7.93945C0 7.41139 0.410587 6.97434 0.937622 6.9414L2 6.875V4.5C2 4.22386 2.22386 4 2.5 4C2.80643 4 3.08657 4.17313 3.22361 4.44721L4.363 6.727L6.822 6.573L6.12403 0.992278C6.06356 0.508496 6.40672 0.0672897 6.8905 0.00681686C6.92683 0.00227662 6.9634 0 7 0Z" fill="#9AA2AC"/>
</svg>
