<svg width="16" height="16" viewBox="0 0 16 16" fill="none" xmlns="http://www.w3.org/2000/svg">
<path d="M4.85355 2.14742C4.65829 1.95216 4.34171 1.95216 4.14645 2.14742L1.14645 5.14742C0.951184 5.34269 0.951184 5.65927 1.14645 5.85453C1.34171 6.04979 1.65829 6.04979 1.85355 5.85453L4 3.70808V13.501C4 13.7771 4.22386 14.001 4.5 14.001C4.77614 14.001 5 13.7771 5 13.501V3.70808L7.14645 5.85453C7.34171 6.04979 7.65829 6.04979 7.85355 5.85453C8.04882 5.65927 8.04882 5.34269 7.85355 5.14742L4.85355 2.14742ZM11.1525 13.8605C11.3463 14.0478 11.6537 14.0478 11.8475 13.8605L14.8475 10.9604C15.0461 10.7684 15.0514 10.4519 14.8595 10.2534C14.6676 10.0548 14.351 10.0495 14.1525 10.2414L12 12.3222L12 2.50107C12 2.22493 11.7761 2.00107 11.5 2.00107C11.2239 2.00107 11 2.22493 11 2.50107L11 12.3222L8.84752 10.2414C8.64898 10.0495 8.33244 10.0548 8.14051 10.2534C7.94858 10.4519 7.95394 10.7684 8.15248 10.9604L11.1525 13.8605Z" fill="#212121"/>
</svg>
